<svg xmlns="http://www.w3.org/2000/svg" viewBox="0 0 64 64">
  <path d="M32 53V29.55" stroke="#13386e" stroke-linecap="round" stroke-linejoin="round" fill="#fff"/>
  <path d="m23 39.25 9-9.7 9 9.7" fill="none" stroke="#13386e" stroke-linecap="round" stroke-linejoin="round"/>
  <path d="M5 35c0 4.42 3.58 8 8 8h35c6.08 0 11-4.92 11-11s-4.92-11-11-11c-.53 0-1.05.05-1.56.12C44.76 15.28 39.38 11 33 11s-11.84 4.35-13.48 10.26c-.48-.15-.99-.26-1.52-.26-2.76 0-5 2.24-5 5 0 .34.04.68.1 1.01H13c-4.42 0-8 3.58-8 8Z" fill="none" stroke="#13386e" stroke-linecap="round" stroke-linejoin="round"/>
</svg>
