<?xml version="1.0" encoding="UTF-8"?><svg id="Layer_1" xmlns="http://www.w3.org/2000/svg" viewBox="0 0 64 64"><defs><style>.cls-1{fill:none;stroke:#13386e;stroke-linecap:round;stroke-linejoin:round;stroke-width:2px;}</style></defs><path class="cls-1" d="M5,40c0,4.42,3.58,8,8,8H48c6.08,0,11-4.92,11-11s-4.92-11-11-11c-.53,0-1.05,.05-1.56,.12-1.68-5.84-7.06-10.12-13.44-10.12s-11.84,4.35-13.48,10.26c-.48-.15-.99-.26-1.52-.26-2.76,0-5,2.24-5,5,0,.34,.04,.68,.1,1.01-.03,0-.07,0-.1,0-4.42,0-8,3.58-8,8Z"/></svg>